<svg width="457" height="134" viewBox="0 0 457 134" fill="none" xmlns="http://www.w3.org/2000/svg">
<path fill-rule="evenodd" clip-rule="evenodd" d="M0 0H88.6283V44.4644C88.6283 50.3036 87.4821 56.0855 85.2551 61.4802C83.0281 66.8749 79.764 71.7766 75.649 75.9055C71.5341 80.0344 66.6489 83.3096 61.2725 85.5442C55.896 87.7787 50.1336 88.9288 44.3142 88.9288C32.5613 88.9288 21.2898 84.2442 12.9793 75.9055C4.6688 67.5668 0 56.2571 0 44.4644V0ZM10.079 10.1132V44.4644C10.079 53.5749 13.6859 62.3123 20.1063 68.7544C26.5266 75.1965 35.2344 78.8156 44.3142 78.8156C48.81 78.8156 53.2618 77.9271 57.4154 76.2008C61.569 74.4745 65.343 71.9442 68.5221 68.7544C71.7011 65.5646 74.2228 61.7777 75.9433 57.61C77.6638 53.4424 78.5493 48.9755 78.5493 44.4644V10.1132H10.079Z" fill="#FE863D"/>
<path fill-rule="evenodd" clip-rule="evenodd" d="M49.3537 83.8722V128.943H39.2746V83.8722H49.3537Z" fill="#FE863D"/>
<path fill-rule="evenodd" clip-rule="evenodd" d="M16.2692 123.887H72.3591V134H16.2692V123.887Z" fill="#FE863D"/>
<path fill-rule="evenodd" clip-rule="evenodd" d="M27.9311 39.1282C22.7951 38.6892 16.2659 39.5239 7.02886 43.5059L3.05017 34.214C13.4504 29.7305 21.6492 28.4414 28.7866 29.0514C35.7422 29.6459 41.2902 32.034 46.1031 34.1056L46.3006 34.1907C51.2633 36.3263 55.4785 38.1063 60.7032 38.5592C65.8404 39.0044 72.3696 38.1791 81.6053 34.2115L85.5723 43.5085C75.1707 47.9769 66.9719 49.2533 59.8358 48.6348C52.8933 48.0331 47.3528 45.6482 42.5476 43.5797C42.4741 43.5481 42.4009 43.5165 42.3278 43.4851C37.3676 41.3505 33.1534 39.5745 27.9311 39.1282Z" fill="#FE863D"/>
<path d="M180.399 35.4106C179.941 31.3308 178.051 28.1705 174.73 25.9295C171.408 23.6597 167.228 22.5249 162.188 22.5249C158.58 22.5249 155.459 23.0995 152.825 24.2487C150.191 25.3692 148.143 26.9207 146.683 28.9031C145.251 30.8568 144.536 33.0834 144.536 35.583C144.536 37.6803 145.022 39.4904 145.996 41.0131C146.998 42.5358 148.301 43.8143 149.904 44.8486C151.536 45.8542 153.283 46.7018 155.144 47.3913C157.005 48.0521 158.795 48.598 160.513 49.0289L169.103 51.2699C171.909 51.9595 174.787 52.8932 177.736 54.0712C180.685 55.2491 183.42 56.8006 185.94 58.7256C188.459 60.6505 190.492 63.0352 192.039 65.8795C193.614 68.7238 194.401 72.1284 194.401 76.0933C194.401 81.0924 193.112 85.5313 190.535 89.4099C187.987 93.2886 184.279 96.3484 179.411 98.5894C174.572 100.83 168.717 101.951 161.845 101.951C155.259 101.951 149.561 100.902 144.75 98.8049C139.94 96.7076 136.174 93.7339 133.454 89.884C130.734 86.0054 129.231 81.4084 128.944 76.0933H142.259C142.517 79.2824 143.548 81.94 145.352 84.066C147.184 86.1634 149.518 87.7292 152.352 88.7635C155.216 89.7691 158.351 90.2719 161.759 90.2719C165.51 90.2719 168.845 89.6829 171.766 88.5049C174.715 87.2982 177.035 85.6319 178.724 83.5058C180.413 81.351 181.258 78.8371 181.258 75.964C181.258 73.3495 180.514 71.2091 179.025 69.5427C177.564 67.8763 175.574 66.4972 173.055 65.4054C170.563 64.3137 167.743 63.3512 164.593 62.518L154.199 59.6737C147.155 57.7487 141.572 54.9187 137.449 51.1838C133.354 47.4488 131.307 42.5071 131.307 36.3587C131.307 31.2734 132.681 26.8345 135.43 23.042C138.179 19.2496 141.901 16.3047 146.597 14.2073C151.293 12.0813 156.59 11.0182 162.489 11.0182C168.445 11.0182 173.699 12.0669 178.252 14.1642C182.833 16.2616 186.441 19.149 189.075 22.8265C191.709 26.4753 193.084 30.67 193.198 35.4106H180.399Z" fill="#111111"/>
<path d="M209.23 125.309V34.2901H221.771V45.021H222.845C223.589 43.6419 224.663 42.0474 226.066 40.2374C227.469 38.4273 229.416 36.8471 231.907 35.4968C234.399 34.1177 237.691 33.4282 241.786 33.4282C247.112 33.4282 251.865 34.7785 256.046 37.4792C260.226 40.1799 263.505 44.0729 265.881 49.1582C268.286 54.2436 269.489 60.3632 269.489 67.5172C269.489 74.6711 268.301 80.8051 265.924 85.9192C263.548 91.0045 260.283 94.9262 256.132 97.6844C251.98 100.414 247.241 101.779 241.915 101.779C237.906 101.779 234.628 101.103 232.079 99.753C229.56 98.4027 227.584 96.8225 226.152 95.0124C224.72 93.2024 223.618 91.5935 222.845 90.1857H222.072V125.309H209.23ZM221.814 67.3879C221.814 72.0422 222.487 76.122 223.833 79.6271C225.179 83.1323 227.126 85.8761 229.674 87.8585C232.222 89.8122 235.343 90.789 239.037 90.789C242.874 90.789 246.081 89.7691 248.658 87.7292C251.235 85.6606 253.182 82.8593 254.499 79.3255C255.845 75.7916 256.518 71.8124 256.518 67.3879C256.518 63.0208 255.859 59.0991 254.542 55.6226C253.254 52.1462 251.307 49.4024 248.701 47.3913C246.124 45.3801 242.903 44.3746 239.037 44.3746C235.315 44.3746 232.165 45.3371 229.588 47.262C227.04 49.187 225.107 51.8733 223.79 55.321C222.473 58.7687 221.814 62.791 221.814 67.3879Z" fill="#111111"/>
<path d="M283.878 100.486V34.2901H296.29V44.8055H296.977C298.18 41.2429 300.299 38.4417 303.334 36.4018C306.398 34.3332 309.863 33.2989 313.728 33.2989C314.53 33.2989 315.475 33.3276 316.563 33.3851C317.68 33.4425 318.553 33.5144 319.183 33.6006V45.926C318.667 45.7824 317.751 45.6244 316.434 45.452C315.117 45.2509 313.8 45.1503 312.482 45.1503C309.447 45.1503 306.741 45.7967 304.365 47.0896C302.017 48.3538 300.156 50.1207 298.781 52.3904C297.407 54.6314 296.72 57.1885 296.72 60.0615V100.486H283.878Z" fill="#111111"/>
<path d="M330.296 100.486V34.2901H343.138V100.486H330.296ZM336.782 24.0763C334.548 24.0763 332.63 23.3293 331.026 21.8353C329.452 20.3126 328.664 18.5026 328.664 16.4052C328.664 14.2792 329.452 12.4691 331.026 10.9751C332.63 9.4524 334.548 8.69104 336.782 8.69104C339.015 8.69104 340.919 9.4524 342.494 10.9751C344.098 12.4691 344.899 14.2792 344.899 16.4052C344.899 18.5026 344.098 20.3126 342.494 21.8353C340.919 23.3293 339.015 24.0763 336.782 24.0763Z" fill="#111111"/>
<path d="M391.211 34.2901V44.6331H355.175V34.2901H391.211ZM364.839 18.4307H377.681V81.0493C377.681 83.5489 378.054 85.4307 378.798 86.6949C379.542 87.9303 380.502 88.7779 381.676 89.2376C382.878 89.6685 384.181 89.884 385.584 89.884C386.615 89.884 387.517 89.8122 388.29 89.6685C389.063 89.5249 389.664 89.41 390.094 89.3238L392.413 99.9685C391.669 100.256 390.609 100.543 389.235 100.83C387.861 101.146 386.143 101.319 384.081 101.348C380.702 101.405 377.552 100.802 374.632 99.5375C371.711 98.2734 369.349 96.3197 367.545 93.6765C365.741 91.0332 364.839 87.7148 364.839 83.7213V18.4307Z" fill="#111111"/>
<path d="M404.042 100.486V91.6509L439.777 46.0984V45.4951H405.202V34.2901H455.797V43.685L421.437 88.6773V89.2807H457V100.486H404.042Z" fill="#111111"/>
</svg>
