<svg width="13" height="18" viewBox="0 0 13 18" fill="none" xmlns="http://www.w3.org/2000/svg">
<path fill-rule="evenodd" clip-rule="evenodd" d="M0.934784 0.666656H12.0652V6.23187C12.0652 6.96271 11.9213 7.68639 11.6416 8.36159C11.3619 9.03679 10.952 9.6503 10.4352 10.1671C9.91843 10.6839 9.30492 11.0938 8.62972 11.3735C7.95451 11.6531 7.23084 11.7971 6.5 11.7971C5.02401 11.7971 3.60848 11.2108 2.5648 10.1671C1.52112 9.12339 0.934784 7.70786 0.934784 6.23187V0.666656ZM2.38406 2.11593V6.23187C2.38406 7.32349 2.8177 8.37039 3.58959 9.14228C4.36148 9.91417 5.40839 10.3478 6.5 10.3478C7.04051 10.3478 7.57574 10.2414 8.0751 10.0345C8.57447 9.82766 9.02821 9.52448 9.41041 9.14228C9.79261 8.76008 10.0958 8.30634 10.3026 7.80698C10.5095 7.30761 10.6159 6.77239 10.6159 6.23187V2.11593H2.38406Z" fill="currentColor"/>
<path fill-rule="evenodd" clip-rule="evenodd" d="M7.22464 11.0724V16.6087H5.77536V11.0724H7.22464Z" fill="currentColor"/>
<path fill-rule="evenodd" clip-rule="evenodd" d="M3.04346 15.884H9.9565V17.3333H3.04346V15.884Z" fill="currentColor"/>
<path fill-rule="evenodd" clip-rule="evenodd" d="M4.47203 5.67954C3.85957 5.62738 3.072 5.72525 1.94548 6.20925L1.37338 4.87767C2.66716 4.32181 3.6948 4.15882 4.59503 4.2355C5.4691 4.30995 6.16599 4.60893 6.75779 4.86282C6.7671 4.86682 6.77638 4.8708 6.78564 4.87477C7.39838 5.13757 7.90366 5.34937 8.52886 5.40337C9.14149 5.45629 9.92906 5.35954 11.0554 4.87731L11.6258 6.20961C10.3318 6.76361 9.30419 6.92501 8.40414 6.84727C7.53174 6.77191 6.83579 6.47332 6.24493 6.21982C6.23472 6.21543 6.22453 6.21106 6.21438 6.20671C5.60201 5.94407 5.09689 5.73277 4.47203 5.67954Z" fill="currentColor"/>
</svg>
